<?xml version="1.0" encoding="utf-8"?>
<!-- Generator: Adobe Illustrator 15.1.0, SVG Export Plug-In . SVG Version: 6.00 Build 0)  -->
<!DOCTYPE svg PUBLIC "-//W3C//DTD SVG 1.1//EN" "http://www.w3.org/Graphics/SVG/1.1/DTD/svg11.dtd">
<svg version="1.1" id="Layer_1" xmlns="http://www.w3.org/2000/svg" xmlns:xlink="http://www.w3.org/1999/xlink" x="0px" y="0px"
	 width="127.559px" height="34.016px" viewBox="0 0 127.559 34.016" enable-background="new 0 0 127.559 34.016"
	 xml:space="preserve">
<g>
	<path fill-rule="evenodd" clip-rule="evenodd" fill="#001842" d="M91.133,26.839c0.56,0,1.023,0.432,1.023,1.112
		c0,0.68-0.464,1.096-1.023,1.096c-0.568,0-1.032-0.408-1.032-1.096C90.101,27.263,90.565,26.839,91.133,26.839z M92.038,26.175
		c-0.272-0.184-0.593-0.224-0.904-0.224c-1.104,0-2,0.768-2,2c0,1.231,0.768,1.983,2,1.983c0.487,0,1,0.248,1,0.792
		s-0.44,0.849-1,0.849c-0.561,0-1.032-0.336-1.032-0.849h-0.968c0,1.064,0.855,1.76,2,1.76c1.144,0,1.976-0.671,1.976-1.76
		c0-0.504-0.16-0.976-0.815-1.304c0.647-0.296,0.832-0.984,0.832-1.472c0-0.432-0.112-0.824-0.416-1.168l0.439-0.561l-0.72-0.544
		L92.038,26.175z M83.376,30.022v-2.071c0-1.24-0.744-1.937-1.672-1.937c-0.496,0-0.896,0.2-1.296,0.592l-0.064-0.535h-0.871v3.951
		h0.968v-2.016c0-0.6,0.407-1.104,1.008-1.104c0.624,0,0.952,0.456,0.952,1.057v2.063H83.376z M72.436,24.967
		c0,0.76,1.151,0.76,1.151,0S72.436,24.207,72.436,24.967z M73.5,26.063v3.96h-0.977v-3.96H73.5z M65.583,24.431v2.185
		c-0.231-0.408-0.88-0.632-1.296-0.632c-1.151,0-2.008,0.703-2.008,2.063c0,1.296,0.872,2.063,2.032,2.063
		c0.479,0,0.968-0.159,1.271-0.632l0.064,0.544h0.912v-5.592H65.583z M64.375,26.895c0.616,0,1.145,0.464,1.145,1.152
		c0,0.712-0.528,1.16-1.145,1.16c-0.624,0-1.12-0.472-1.12-1.16C63.255,27.335,63.751,26.895,64.375,26.895z M54.386,26.854
		c1.537,0,1.537,2.393,0,2.393c-0.647,0-1.168-0.448-1.168-1.2S53.739,26.854,54.386,26.854z M55.555,26.623
		c-0.224-0.392-0.728-0.64-1.257-0.64c-1.151-0.009-2.056,0.703-2.056,2.063c0,1.384,0.864,2.104,2.032,2.096
		c0.439-0.008,1.057-0.231,1.28-0.695l0.048,0.575h0.92v-3.943h-0.936L55.555,26.623z M43.871,26.079v3.943h0.976v-2.079
		c0-0.729,0.472-1,0.984-1c0.319,0,0.504,0.088,0.704,0.256l0.439-0.849c-0.216-0.216-0.607-0.376-1.016-0.376
		c-0.4,0-0.809,0.072-1.112,0.561l-0.072-0.456H43.871z M36.186,30.022h1.056v-4.647h1.776v-0.96c-1.624,0-2.992,0-4.608,0v0.96
		h1.776V30.022z M0,22.678h127.559v11.338H0V22.678z"/>
	<path fill="none" stroke="#001842" stroke-width="0.216" stroke-miterlimit="22.9256" d="M91.133,26.839
		c0.56,0,1.023,0.432,1.023,1.112c0,0.68-0.464,1.096-1.023,1.096c-0.568,0-1.032-0.408-1.032-1.096
		C90.101,27.263,90.565,26.839,91.133,26.839z M92.038,26.175c-0.272-0.184-0.593-0.224-0.904-0.224c-1.104,0-2,0.768-2,2
		c0,1.231,0.768,1.983,2,1.983c0.487,0,1,0.248,1,0.792s-0.44,0.849-1,0.849c-0.561,0-1.032-0.336-1.032-0.849h-0.968
		c0,1.064,0.855,1.76,2,1.76c1.144,0,1.976-0.671,1.976-1.76c0-0.504-0.16-0.976-0.815-1.304c0.647-0.296,0.832-0.984,0.832-1.472
		c0-0.432-0.112-0.824-0.416-1.168l0.439-0.561l-0.72-0.544L92.038,26.175z M83.376,30.022v-2.071c0-1.24-0.744-1.937-1.672-1.937
		c-0.496,0-0.896,0.2-1.296,0.592l-0.064-0.535h-0.871v3.951h0.968v-2.016c0-0.6,0.407-1.104,1.008-1.104
		c0.624,0,0.952,0.456,0.952,1.057v2.063H83.376z M72.436,24.967c0,0.76,1.151,0.76,1.151,0S72.436,24.207,72.436,24.967z
		 M73.5,26.063v3.96h-0.977v-3.96H73.5z M65.583,24.431v2.185c-0.231-0.408-0.88-0.632-1.296-0.632
		c-1.151,0-2.008,0.703-2.008,2.063c0,1.296,0.872,2.063,2.032,2.063c0.479,0,0.968-0.159,1.271-0.632l0.064,0.544h0.912v-5.592
		H65.583z M64.375,26.895c0.616,0,1.145,0.464,1.145,1.152c0,0.712-0.528,1.16-1.145,1.16c-0.624,0-1.12-0.472-1.12-1.16
		C63.255,27.335,63.751,26.895,64.375,26.895z M54.386,26.854c1.537,0,1.537,2.393,0,2.393c-0.647,0-1.168-0.448-1.168-1.2
		S53.739,26.854,54.386,26.854z M55.555,26.623c-0.224-0.392-0.728-0.64-1.257-0.64c-1.151-0.009-2.056,0.703-2.056,2.063
		c0,1.384,0.864,2.104,2.032,2.096c0.439-0.008,1.057-0.231,1.28-0.695l0.048,0.575h0.92v-3.943h-0.936L55.555,26.623z
		 M43.871,26.079v3.943h0.976v-2.079c0-0.729,0.472-1,0.984-1c0.319,0,0.504,0.088,0.704,0.256l0.439-0.849
		c-0.216-0.216-0.607-0.376-1.016-0.376c-0.4,0-0.809,0.072-1.112,0.561l-0.072-0.456H43.871z M36.186,30.022h1.056v-4.647h1.776
		v-0.96c-1.624,0-2.992,0-4.608,0v0.96h1.776V30.022z M0,22.678h127.559v11.338H0V22.678z"/>
	<rect x="0" fill-rule="evenodd" clip-rule="evenodd" fill="#FFFFFF" width="127.559" height="22.678"/>
	<rect x="0" fill="none" stroke="#001842" stroke-width="0.216" stroke-miterlimit="22.9256" width="127.559" height="22.678"/>
	<path fill="#001842" d="M70.85,19.931l8.736-14.784h-7.272V2.771h11.56l-8.655,14.665h8.76v2.495H70.85z M90.054,13.188h4.783
		l-1.76-3.913c-0.1-0.248-0.208-0.536-0.315-0.859c-0.108-0.324-0.22-0.685-0.328-1.084c-0.092,0.376-0.192,0.724-0.3,1.048
		c-0.104,0.324-0.213,0.624-0.32,0.896L90.054,13.188z M97.766,19.931l-1.944-4.416h-6.8l-1.992,4.416h-2.928L92.41,2.099
		l8.301,17.832H97.766z M102.322,19.931V2.099l10.904,10.484c0.296,0.296,0.596,0.612,0.904,0.948
		c0.304,0.336,0.624,0.716,0.96,1.136V2.771h2.567v17.833L106.542,9.923c-0.296-0.292-0.584-0.597-0.86-0.916
		c-0.28-0.32-0.54-0.656-0.792-1.008v11.932H102.322z M121.646,19.931V2.771h2.784v17.16H121.646z"/>
	<path fill="#001842" d="M18.777,11.459c-0.031-0.132-0.084-0.5-0.151-1.101c-0.064-0.5-0.12-0.916-0.164-1.244
		c-0.072,0.393-0.172,0.784-0.301,1.173c-0.128,0.392-0.292,0.788-0.487,1.195l-4.488,9.145l-4.488-9.332
		c-0.188-0.385-0.352-0.752-0.487-1.112c-0.137-0.36-0.257-0.716-0.356-1.068c-0.008,0.36-0.036,0.736-0.088,1.133
		c-0.052,0.396-0.128,0.808-0.229,1.235l-1.84,8.448H3.129l4.056-17.88l5.064,10.828c0.075,0.168,0.195,0.456,0.355,0.853
		c0.16,0.399,0.353,0.892,0.58,1.476c0.164-0.492,0.424-1.116,0.776-1.872c0.092-0.204,0.164-0.36,0.207-0.468l4.948-10.816
		l4.148,17.88h-2.592L18.777,11.459z M29.117,13.188h4.784l-1.76-3.913c-0.1-0.248-0.208-0.536-0.315-0.859
		c-0.108-0.324-0.221-0.685-0.328-1.084c-0.092,0.376-0.192,0.724-0.301,1.048c-0.104,0.324-0.212,0.624-0.319,0.896L29.117,13.188z
		 M36.83,19.931l-1.944-4.416h-6.8l-1.992,4.416h-2.928l8.308-17.832l8.3,17.832H36.83z M41.385,19.931V2.771h2.784v14.665h6.24
		v2.495H41.385z"/>
	<path fill-rule="evenodd" clip-rule="evenodd" fill="#001842" d="M58.81,7.892c-0.168,0.079-0.309,0.176-0.532,0.216
		c-0.21-0.414-0.556-0.751-1.054-0.316c-0.576,0.502-0.215,0.732,0.154,1.13L57.13,9.388c-0.562-0.074-0.926-0.511-1.199,0.238
		c-0.285,0.783,0.289,0.681,0.704,1.003c-0.034,0.484,0.065,0.483-0.343,0.538c-1.121,0.151-0.495,1.154-0.442,1.191
		c0.354,0.123,0.526,0.065,0.885,0.035l0.185,0.498c-0.238,0.168-0.569,0.32-0.626,0.621c-0.056,0.297,0.296,0.664,0.445,0.771
		c0.504,0.073,0.583-0.208,0.911-0.325l0.385,0.297c-0.111,0.378-0.344,0.423-0.251,0.934c0.134,0.169,0.456,0.437,0.773,0.402
		c0.344-0.036,0.397-0.364,0.591-0.673l0.528,0.069c0.029,0.628-0.062,0.528,0.229,0.989c1.11,0.105,1.016-0.124,1.053-0.989
		l0.527-0.094c0.196,0.356,0.211,0.507,0.526,0.691c0.372,0.032,0.665-0.198,0.834-0.396c0.094-0.478-0.14-0.567-0.23-0.912
		c0.147-0.186,0.196-0.226,0.373-0.318c0.312,0.13,0.374,0.344,0.847,0.344c0.207-0.104,0.523-0.463,0.512-0.738
		c-0.014-0.301-0.38-0.49-0.595-0.655l0.118-0.499c0.635,0.019,1.042,0.176,1.112-0.563c0.073-0.762-0.385-0.553-0.902-0.737
		l-0.094-0.509c0.482-0.233,0.957-0.264,0.731-0.918c-0.273-0.796-0.591-0.407-1.223-0.288L63.23,8.934
		c0.354-0.381,0.743-0.612,0.216-1.108c-0.467-0.438-0.843-0.232-1.089,0.279c-0.257-0.037-0.333-0.117-0.535-0.209
		c0.114-0.783,0.256-1.297-0.867-1.171c-0.279,0.332-0.279,0.399-0.363,0.857l-0.549,0.002c-0.127-0.561-0.121-1.008-0.859-0.835
		C58.484,6.913,58.744,7.348,58.81,7.892 M59.356,5.709C57.7,6.007,56.548,6.847,55.79,7.837c-0.849,1.107-1.423,2.639-1.129,4.443
		c0.464,2.852,3.194,5.322,6.638,4.721c2.801-0.489,5.199-3.144,4.662-6.571C65.518,7.606,62.782,5.094,59.356,5.709z M59.82,2.12
		c-0.207,0.159-0.986,0.2-1.275,0.15c-0.202-0.318-0.21-0.856-0.438-1.233c-0.291-0.043-1.019,0.067-1.145,0.322
		c-0.144,0.399,0.214,0.879,0.202,1.305c-0.155,0.145-1.017,0.507-1.224,0.526c-0.824-0.795-0.266-1.519-1.768-0.548
		C54.112,3.24,54.584,3.5,54.741,3.968c-0.121,0.163-0.831,0.798-1.014,0.871c-0.454-0.212-0.582-0.66-1.107-0.746
		c-0.251,0.105-0.694,0.573-0.726,0.917c0.164,0.337,0.651,0.598,0.903,0.912c-0.053,0.298-0.475,0.756-0.608,1.127
		c-0.543,0.006-0.862-0.452-1.35-0.379c-0.245,0.154-0.484,0.72-0.474,1.066c0.211,0.263,0.775,0.442,1.149,0.594
		c0.032,0.272-0.231,1.235-0.327,1.313c-0.323,0.161-0.899-0.188-1.318,0.035c-0.188,0.195-0.225,0.763-0.162,1.122
		c0.405,0.291,0.854,0.134,1.331,0.286l0.09,1.345c-0.847,0.373-1.772-0.2-1.14,1.526c0.854,0.187,1.271-0.495,1.527,0.182
		l0.302,0.964c-0.187,0.165-0.839,0.479-1.088,0.646c-0.049,0.442,0.259,0.883,0.463,1.104c0.59,0.047,0.813-0.4,1.297-0.483
		c0.198,0.145,0.257,0.294,0.399,0.489c0.152,0.208,0.335,0.347,0.387,0.596c-0.15,0.309-0.739,0.642-0.809,0.946
		c-0.061,0.268,0.563,0.821,0.804,0.886c0.516-0.14,0.614-0.657,1.042-0.843c0.161,0.058,0.945,0.641,1.058,0.77
		c-0.068,0.488-0.535,0.756-0.461,1.303c0.162,0.152,0.74,0.597,1.037,0.463c0.234-0.104,0.521-0.779,0.623-1.074
		c0.253-0.004,1.154,0.297,1.326,0.416c0.056,0.485-0.229,0.801-0.103,1.339c0.266,0.188,0.765,0.281,1.161,0.23
		c0.214-0.346,0.231-0.91,0.34-1.331c0.35-0.002,1.084-0.066,1.32,0.094c0.253,0.311,0.051,0.95,0.339,1.289
		c0.365,0.099,0.909,0.02,1.144-0.149c0.13-0.46-0.059-0.875-0.037-1.357c0.187-0.071,1.09-0.319,1.303-0.313
		c0.465,0.567,0.206,1.473,1.248,0.993c0.376-0.173,0.578-0.229,0.408-0.693c-0.116-0.315-0.342-0.615-0.341-0.947
		c0.267-0.152,0.932-0.619,1.176-0.647c0.241,0.239,0.529,0.764,0.894,0.901c0.292-0.047,0.916-0.542,0.877-0.82
		c-0.053-0.372-0.657-0.68-0.748-1.063l0.848-0.972c0.456,0.082,0.683,0.557,1.254,0.575c0.212-0.195,0.63-0.715,0.53-1.052
		c-0.152-0.267-0.697-0.52-1.011-0.687c0.001-0.367,0.328-0.918,0.456-1.267c0.827-0.068,1.324,0.755,1.618-0.327
		c0.05-0.183,0.105-0.395,0.06-0.623c-0.296-0.234-0.951-0.236-1.215-0.469c-0.074-0.094,0.006-1.17,0.15-1.298
		c0.159-0.11,0.458-0.072,0.699-0.08c0.098-0.003,0.268-0.005,0.359-0.028c0.267-0.068,0.121,0.003,0.236-0.153
		c0.13-0.26,0.093-0.864-0.078-1.116c-0.369-0.182-0.872,0.01-1.302-0.067c-0.109-0.161-0.274-1.08-0.27-1.297
		c0.297-0.271,0.877-0.227,1.133-0.507c0.23-0.251-0.123-0.983-0.284-1.171c-0.58-0.063-0.855,0.301-1.372,0.309
		c-0.127-0.246-0.539-0.922-0.572-1.171c0.195-0.317,0.727-0.463,0.906-0.788c0.177-0.321-0.361-0.873-0.509-1.025
		c-0.584-0.05-0.782,0.466-1.246,0.649c-0.105,0-0.91-0.838-0.956-0.921c0.138-0.433,0.689-0.723,0.635-1.238
		c-0.135-0.191-0.597-0.561-0.915-0.602c-0.366,0.195-0.586,0.679-0.842,0.982c-0.24-0.024-1-0.444-1.219-0.585
		c0.001-0.502,0.365-0.753,0.3-1.371C64.04,1.392,63.47,1.158,63.216,1.2c-0.33,0.212-0.426,0.826-0.555,1.218
		c-0.259,0.013-1.179-0.15-1.352-0.237c-0.108-0.437,0.054-0.889-0.079-1.361c-0.247-0.077-0.46-0.096-0.798-0.096
		C59.533,0.724,60.245,1.703,59.82,2.12z M59.513,4.71c-2.063,0.261-3.385,1.236-4.334,2.353c-0.998,1.176-1.78,3.043-1.509,5.118
		c0.442,3.39,3.517,6.329,7.466,5.812c3.403-0.446,6.328-3.522,5.807-7.512C66.502,7.11,63.413,4.219,59.513,4.71z"/>
</g>
</svg>
